<?xml version="1.0" standalone="no"?>
<!DOCTYPE svg PUBLIC "-//W3C//DTD SVG 20010904//EN"
 "http://www.w3.org/TR/2001/REC-SVG-20010904/DTD/svg10.dtd">
<svg version="1.0" xmlns="http://www.w3.org/2000/svg"
 width="24.000000pt" height="24.000000pt" viewBox="0 0 24.000000 24.000000"
 preserveAspectRatio="xMidYMid meet">

<g transform="translate(0.000000,24.000000) scale(0.100000,-0.100000)"
fill="#FFF" stroke="none">
<path d="M59 181 c-20 -20 -29 -39 -29 -61 0 -43 47 -90 90 -90 43 0 90 47 90
90 0 43 -47 90 -90 90 -22 0 -41 -9 -61 -29z m86 -39 c-3 -3 -10 0 -15 8 -5 8
-12 11 -16 7 -4 -4 3 -18 16 -32 21 -23 22 -27 10 -50 l-14 -26 -20 20 c-11
11 -16 24 -12 28 5 4 11 2 13 -4 6 -17 23 -17 23 0 0 7 -9 18 -20 25 -24 15
-25 30 -3 54 16 17 17 17 31 -3 8 -11 11 -23 7 -27z"/>
</g>
</svg>
