<?xml version="1.0" standalone="no"?>
<!DOCTYPE svg PUBLIC "-//W3C//DTD SVG 20010904//EN"
 "http://www.w3.org/TR/2001/REC-SVG-20010904/DTD/svg10.dtd">
<svg version="1.0" xmlns="http://www.w3.org/2000/svg"
 width="24.000000pt" height="24.000000pt" viewBox="0 0 24.000000 24.000000"
 preserveAspectRatio="xMidYMid meet">

<g transform="translate(0.000000,24.000000) scale(0.100000,-0.100000)"
fill="#FFF" stroke="none">
<path d="M20 190 c0 -19 7 -20 100 -20 93 0 100 1 100 20 0 19 -7 20 -100 20
-93 0 -100 -1 -100 -20z"/>
<path d="M32 93 l3 -58 85 0 85 0 3 58 3 57 -91 0 -91 0 3 -57z m118 27 c0 -5
-13 -10 -30 -10 -16 0 -30 5 -30 10 0 6 14 10 30 10 17 0 30 -4 30 -10z"/>
</g>
</svg>
